<?xml version="1.0" encoding="utf-8"?>
<!-- Generator: Adobe Illustrator 25.0.0, SVG Export Plug-In . SVG Version: 6.00 Build 0)  -->
<svg version="1.1" id="Capa_1" xmlns="http://www.w3.org/2000/svg" xmlns:xlink="http://www.w3.org/1999/xlink" x="0px" y="0px"
	 viewBox="0 0 400 400" style="enable-background:new 0 0 400 400;" xml:space="preserve">
<style type="text/css">
	.st0{fill:#FFFFFF;}
	.st1{fill:none;stroke:#FFFFFF;stroke-linecap:round;stroke-linejoin:round;stroke-miterlimit:10;}
</style>
<g>
	<path class="st0" d="M58.1,348.2h83v-3.1c0,0-31.5,4.8-45.7-47.1h-9.9c0,0,3.6,51-27.4,46.6C58.1,344.6,58.1,348.2,58.1,348.2z"/>
	<path class="st1" d="M120.1,310.7c1.1,0.3,3.3,0.6,4.3-0.5c0.8-0.9,0.7-2.5-1-7c-2.5-6.6-4.3-9.4-4.3-9.4
		c-15.4-23.1-23.6-32.5-23.6-32.5c-12.1-14-18.1-21-26.2-29.8c-10-10.9-18.4-19.7-24.5-26"/>
	<path class="st1" d="M31.4,187.1c8.3,9.1,15.6,16.2,21.2,21.4c1,0.9,6,5.5,13,11.3c10.5,8.6,15.8,13,17.3,11.8
		c2.8-2.2-9.3-22-10.6-24.1c-9.6-15.6-19.4-26-19.2-26.2c0.2-0.2,10.6,12.7,26,27.2c8.1,7.6,14.2,12.6,15.9,13.9
		c9.8,7.9,18.7,13.8,25.2,17.8"/>
	<path class="st1" d="M85.3,202c-2.4-2.8-4.9-6.2-4.1-7.2c0.8-1,4.1,1.4,5.3,0.2c2.2-2.1-6.2-14-4.8-14.9c0,0,0,0,0.1,0
		c2-0.7,6.6,5.7,6.4,5.8c-0.1,0.1-5.1-3.6-5.8-8.7c-0.2-1.6,0.1-2.2-0.2-4.3c-0.5-2.7-1.6-4.7-2.5-6.1"/>
	<path class="st1" d="M82.1,158.1c-0.4-0.6-1-1.4-1.3-1.3c-0.4,0.2,0,2.1,0,2.3c0.2,0.9,0.6,2.6,2,4.1c0.9,0.9,1.7,1.4,2,1.5
		c0.4,0.2,2.8,1.5,4.1,0.6c0.8-0.5,0.9-1.7,0.5-5.4c-0.4-4.6-0.6-6.9-1.2-8.9c-0.2-0.8-1.3-4.5-3.3-8c-0.9-1.5-1.3-3.3-2.2-4.9
		c0-0.1-0.4-0.8-0.5-1.9c0-0.4,0-0.9,0.3-1.2c0.4-0.4,1.1-0.2,1.5-0.1c1.3,0.4,3.4,1.6,3.4,3.3c0,0.6-0.2,1.5-0.9,1.8
		c-0.8,0.4-1.9-0.3-2.2-0.5c-0.2-0.2-1.4-1-1.5-2.2c-0.1-1.2,0.9-1.5,1.5-3.4c0.1-0.5,0.2-0.9,0.3-2.2c0.2-4.5,0.3-6.7-0.7-8.4
		c-0.8-1.2-1.9-2.6-1.9-2.6c-0.6-0.7-1.2-1.3-1.2-1.4c0.1-0.1,1.2,1.4,3.1,1.7c0.9,0.2,1-0.1,2.8,0c1.2,0.1,1.8,0.1,2.5,0.3
		c0.4,0.1,2.8,1,3.1,3c0.1,0.9-0.2,2.1-0.9,2.4c-1.3,0.4-3.5-2.9-3.8-3.4c-1.4-2.1-1.8-3.9-2.2-5.2c-0.6-2.2-1.6-5.3-3.2-9.2"/>
	<path class="st0" d="M89.8,91.5h-5.3c0,0,4.1-43.5-26.1-43.3v-3.6h48.8l115.8,244.2l91.4-244.2h54.2v3.7h-6.1c0,0-22.2-0.5-22,52.1
		v196.8c0,0-0.7,44.7,19.5,47.1h8.7v4.1h-83.3l0-3.8l6.5-0.1c0,0,21.3,1.3,21.2-43.2L314.1,57L213.5,326.5h-3.2L89.5,67.6L89.8,91.5
		z"/>
</g>
</svg>
